# xmcd
#
# Track frame offsets:
#	150
#	16628
#	29960
#	49136
#	67837
#	84119
#	94877
#	107460
#
# Disc length: 1744 seconds
#
# Revision: 0
# Processed by: cddbd v1.5.2PL0 Copyright (c) Steve Scherf et al.
# Submitted via: EasyCDDAExtractor 16.0.1.1
#
DISCID=5606ce08
DTITLE=The Dixie Bee-Liners
DYEAR=2005
DGENRE=Bluegrass
TTITLE0=Davy
TTITLE1=Brown-Eyed Darlin'
TTITLE2=Lost In The Silence
TTITLE3=Roses Are Grey
TTITLE4=Family Tree
TTITLE5=My Heart's Breakin' In
TTITLE6=Yellow-haired Girl
TTITLE7=Lord  Lay Down My Ball and Chain
EXTD=
EXTT0=
EXTT1=
EXTT2=
EXTT3=
EXTT4=
EXTT5=
EXTT6=
EXTT7=
PLAYORDER=
